<svg xmlns="http://www.w3.org/2000/svg" viewBox="0 0 210.43 210.43"><defs><style>.cls-1{fill:#fff;}</style></defs><g id="Layer_2" data-name="Layer 2"><g id="Layer_1-2" data-name="Layer 1"><path class="cls-1" d="M210.43,16.37a1.94,1.94,0,0,0-.57-1.37L195.42.57a1.92,1.92,0,0,0-2.73,0l-8.81,8.81a30.93,30.93,0,0,0-11.73-2.3h-141A31.23,31.23,0,0,0,0,38.27v141a31.23,31.23,0,0,0,31.19,31.2h141a31.23,31.23,0,0,0,31.19-31.2v-141a31.1,31.1,0,0,0-2.29-11.72l8.81-8.82A1.93,1.93,0,0,0,210.43,16.37Zm-18.68,21.9v141a19.62,19.62,0,0,1-19.6,19.6h-141a19.62,19.62,0,0,1-19.59-19.6v-141A19.61,19.61,0,0,1,31.19,18.68h141a21.47,21.47,0,0,1,2.28.14L99.36,93.9a1.92,1.92,0,0,0-.49.82l-6.08,20.51a2,2,0,0,0,.49,1.92,1.91,1.91,0,0,0,1.36.57,2,2,0,0,0,.55-.08l20.52-6.08a1.92,1.92,0,0,0,.81-.49L191.6,36A19.12,19.12,0,0,1,191.75,38.27Z"/></g></g></svg>