<svg xmlns="http://www.w3.org/2000/svg" viewBox="0 0 210.43 210.43"><defs><style>.cls-1{fill:#fff;}</style></defs><g id="Layer_2" data-name="Layer 2"><g id="Layer_1-2" data-name="Layer 1"><path class="cls-1" d="M204.43,210.43H6a6,6,0,0,1-6-6V105.21A6,6,0,0,1,1.76,101L101,1.76a6,6,0,0,1,8.49,0L208.67,101a6,6,0,0,1,1.75,4.24v99.22a6,6,0,0,1-6,6ZM12,198.43H198.43V107.7L105.21,14.49,12,107.7Z"/><path class="cls-1" d="M105.21,116.94c8.73,0,17.46,5.46,17.46,16.4v39.4H87.76v-39.4c0-10.94,8.72-16.4,17.45-16.4m0-9a27.68,27.68,0,0,0-17.77,6.19,24.51,24.51,0,0,0-8.68,19.21v39.4a9,9,0,0,0,9,9h34.91a9,9,0,0,0,9-9v-39.4A24.52,24.52,0,0,0,123,114.13a27.68,27.68,0,0,0-17.77-6.19Z"/></g></g></svg>