<svg xmlns="http://www.w3.org/2000/svg" viewBox="0 0 1500 200"><defs><style>.cls-1{fill:none;}.cls-2{fill:#fff;}</style></defs><g id="Layer_2" data-name="Layer 2"><g id="Layer_1-2" data-name="Layer 1"><rect width="1500" height="200" rx="5"/><rect class="cls-1" x="19.56" y="69.55" width="73.35" height="130.45"/><polygon class="cls-2" points="140.89 11.76 220.11 51.37 140.89 51.37 140.89 85.35 284.31 85.35 284.31 48.37 187.4 0 140.89 0 140.89 11.76"/><path class="cls-2" d="M239.63,164.92s-41.87,0-44,35.08h88.64C282.46,164.93,239.63,164.92,239.63,164.92Z"/><rect class="cls-2" x="140.89" y="166.61" width="34.35" height="33.39"/><path class="cls-2" d="M30.56,18.64h81.9V0H3.94C9.18,11.14,19.12,18.64,30.56,18.64Z"/><path class="cls-2" d="M112.46,46.06H0V187.49A43.53,43.53,0,0,0,1.81,200H19.56V69.55H92.9V200h17.75a43.53,43.53,0,0,0,1.81-12.51Z"/><path class="cls-2" d="M1126.87,128.53V71.47h59.07V85.14h-45.48v29.72h45.48v13.67Zm23.3-35.4h35.77V106.8h-25.47Z"/><path class="cls-2" d="M1235,71.47h16.81l-22.18,26.81,22,30.25h-16.58l-13.74-20.24-16.65,20.24H1190V71.47h13.6v38.16Z"/><path class="cls-2" d="M1312.73,106.8h-57V93.13h57Z"/><path class="cls-2" d="M1335.8,128.53V85.14h-19V71.47h32.56v57.06Z"/><path class="cls-2" d="M1399.87,106.8h-26.36L1363.2,93.13h36.67c2.39,0,2.39-4.11,2.39-4.11s0-3.88-2.39-3.88h-46.52V71.47h48.39c15.08,0,15.08,17.55,15.08,17.55,0,4.86-1,8.37-2.69,11,1.64,2.54,2.69,6,2.69,10.75,0,0,0,17.78-14.79,17.78h-48.68V114.86h46.52c2.39,0,2.39-4.11,2.39-4.11S1402.26,106.8,1399.87,106.8Z"/><polygon class="cls-2" points="971.32 0 1049.93 200 1045.63 200 967.02 0 971.32 0"/><polygon class="cls-2" points="1001.32 0 1079.93 200 1075.63 200 997.02 0 1001.32 0"/></g></g></svg>