<svg xmlns="http://www.w3.org/2000/svg" viewBox="0 0 1500 200"><defs><style>.cls-1{fill:#fff;}</style></defs><g id="Layer_2" data-name="Layer 2"><g id="Layer_1-2" data-name="Layer 1"><rect width="1500" height="200" rx="5"/><polygon class="cls-1" points="249.96 142.1 284.31 142.1 284.31 0 249.96 0 249.96 54.06 140.89 54.06 140.89 88.04 249.96 88.04 249.96 142.1"/><polygon class="cls-1" points="175.25 186.39 249.96 186.39 249.96 200 284.31 200 284.31 152.23 140.89 152.23 140.89 200 175.25 200 175.25 186.39"/><path class="cls-1" d="M30.56,191.36h4.89C52.36,191.36,66,175,66,154.65V30.34H92.9V185h19.56V43.56c0-20.31-13.65-36.71-30.56-36.71H77c-16.91,0-30.56,16.4-30.56,36.71v124.3H19.56V13.21H0V154.65C0,175,13.65,191.36,30.56,191.36Z"/><path class="cls-1" d="M1162,108.92c-15.08,0-15.08-17.55-15.08-17.55s0-17.77,14.86-17.77h48.61V87.26h-46.52c-2.39,0-2.39,4.11-2.39,4.11s0,3.89,2.39,3.89H1196c15.08,0,15.08,17.62,15.08,17.62s0,17.77-14.78,17.77h-48.69V117h46.52c2.39,0,2.39-4.11,2.39-4.11s0-4-2.39-4Z"/><path class="cls-1" d="M1228.68,130.65h-13.59V73.6h13.59V95.26h30.69V73.6H1273v57.05h-13.6V108.92h-30.69Z"/><path class="cls-1" d="M1290.59,114.15c2.53,4.78,16.35,4.78,16.35,4.78s13.81,0,16.35-4.78V113h13.6v6.2c-1.27,12.77-30,12.77-30,12.77s-28.75,0-30-12.77V85c1.2-12.77,30-12.77,30-12.77s28.68,0,30,12.77v6.2h-13.6V90c-2.54-4.78-16.35-4.78-16.35-4.78s-13.82,0-16.35,4.78Z"/><path class="cls-1" d="M1396.77,119.15c0,12.77-27.93,12.77-27.93,12.77s-27.93,0-27.93-12.77V98.39h13.59v16.8c.53,4.78,14.34,4.78,14.34,4.78s13.82,0,14.34-4.78V73.6h13.59Z"/><polygon class="cls-1" points="971.32 0 1049.93 200 1045.63 200 967.02 0 971.32 0"/><polygon class="cls-1" points="1001.32 0 1079.93 200 1075.63 200 997.02 0 1001.32 0"/></g></g></svg>