<svg xmlns="http://www.w3.org/2000/svg" viewBox="0 0 1500 200"><defs><style>.cls-1{fill:#fff;}</style></defs><g id="Layer_2" data-name="Layer 2"><g id="Layer_1-2" data-name="Layer 1"><rect width="1500" height="200" rx="5"/><rect class="cls-1" x="249.96" width="34.35" height="20.06"/><rect class="cls-1" x="195.52" width="34.35" height="20.06"/><rect class="cls-1" x="140.89" width="34.35" height="20.06"/><path class="cls-1" d="M189.33,114.85v31.72H140.89v34.16h114.7c32.1-3,32.1-75.27,32.1-75.27s0-72.27-32.1-75.28H140.89V64.35H243c12,6.38,12,41.11,12,41.11s0,34.73-12,41.11H223.68V88.94Z"/><polygon class="cls-1" points="92.9 0.76 0 0.76 0 24.25 92.9 24.25 92.9 100.6 112.46 100.6 112.46 0 92.9 0 92.9 0.76"/><path class="cls-1" d="M19.56,144.65h92.9V121.16H30.56C13.65,121.16,0,137.55,0,157.86V200H19.56Z"/><path class="cls-1" d="M1141.88,126.68V69.63H1201V83.29h-45.48V113H1201v13.66Zm23.3-35.4H1201V105h-25.47Z"/><path class="cls-1" d="M1219.39,105c-15.09,0-15.09-17.55-15.09-17.55s0-17.77,14.86-17.77h48.62V83.29h-46.53c-2.39,0-2.39,4.11-2.39,4.11s0,3.88,2.39,3.88h32.11c15.09,0,15.09,17.63,15.09,17.63s0,17.77-14.79,17.77H1205V113h46.53c2.39,0,2.39-4.11,2.39-4.11s0-4-2.39-4Z"/><path class="cls-1" d="M1286.89,105c-15.09,0-15.09-17.55-15.09-17.55s0-17.77,14.87-17.77h48.61V83.29h-46.52c-2.39,0-2.39,4.11-2.39,4.11s0,3.88,2.39,3.88h32.11c15.08,0,15.08,17.63,15.08,17.63s0,17.77-14.78,17.77h-48.69V113H1319c2.39,0,2.39-4.11,2.39-4.11s0-4-2.39-4Z"/><path class="cls-1" d="M1385,69.63h16.8l-22.18,26.81,22,30.24h-16.58l-13.74-20.24-16.65,20.24H1340V69.63h13.59v38.16Z"/><polygon class="cls-1" points="1075.63 0 997.02 200 1001.32 200 1079.93 0 1075.63 0"/><polygon class="cls-1" points="1045.63 0 967.02 200 971.32 200 1049.93 0 1045.63 0"/></g></g></svg>