<svg xmlns="http://www.w3.org/2000/svg" viewBox="0 0 1500 200"><defs><style>.cls-1{fill:none;}.cls-2{fill:#fff;}</style></defs><g id="Layer_2" data-name="Layer 2"><g id="Layer_1-2" data-name="Layer 1"><rect width="1500" height="200" rx="5"/><rect class="cls-1" x="19.56" y="45.35" width="73.35" height="131.16"/><rect class="cls-2" x="249.96" width="34.35" height="43.83"/><path class="cls-2" d="M195.52,2.91c0,6-10,6-10,6s-10.32,0-10.32-6V0H140.89V8.35c0,37.17,44.68,37.17,44.68,37.17s44.3,0,44.3-37.92V0H195.52Z"/><path class="cls-2" d="M167.74,125.85s0-34.73,12-36H222V55.64H169.8c-32.1,0-32.1,70.21-32.1,70.21s0,70.21,32.1,70.21H284.31V161.89H179.75C167.74,160.58,167.74,125.85,167.74,125.85Z"/><path class="cls-2" d="M81.9,21.86H30.56C13.65,21.86,0,38.25,0,58.56V163.3C0,183.6,13.65,200,30.56,200H81.9c16.91,0,30.56-16.4,30.56-36.7V58.56C112.46,38.25,98.81,21.86,81.9,21.86Zm11,154.65H19.56V45.35H92.9Z"/><path class="cls-2" d="M1173.58,119.89c-1.2,12.77-29.95,12.77-29.95,12.77s-28.75,0-29.94-12.77V85.76C1114.88,73,1143.63,73,1143.63,73s28.75,0,29.95,12.77ZM1160,90.77c-2.54-4.86-16.36-4.86-16.36-4.86s-13.81,0-16.35,4.86v24.12c2.54,4.78,16.35,4.78,16.35,4.78s13.82,0,16.43-4.78Z"/><path class="cls-2" d="M1177.61,131.39v-57H1226c15.08,0,15.08,17.55,15.08,17.55,0,4.85-1,8.36-2.69,11,1.65,2.54,2.69,6,2.69,10.76,0,0,0,17.77-14.78,17.77ZM1224.13,96c2.39,0,2.39-4.1,2.39-4.1s0-3.89-2.39-3.89H1191.2v29.73h32.93c2.39,0,2.39-4.11,2.39-4.11s0-4-2.39-4h-12.92L1200.91,96Z"/><path class="cls-2" d="M1305,119.89c-1.19,12.77-30,12.77-30,12.77s-28.75,0-29.94-12.77V74.34h13.59v40.55c2.54,4.78,16.35,4.78,16.35,4.78s13.82,0,16.36-4.78V74.34H1305Z"/><path class="cls-2" d="M1366.08,109.66h-57V96h57Z"/><path class="cls-2" d="M1384.82,74.34l31.66,38.31V74.34H1430v57h-14.86L1383.7,93.16v38.23h-13.59v-57Z"/><polygon class="cls-2" points="1075.63 0 997.02 200 1001.32 200 1079.93 0 1075.63 0"/><polygon class="cls-2" points="1045.63 0 967.02 200 971.32 200 1049.93 0 1045.63 0"/></g></g></svg>